<?xml version="1.0" standalone="no"?>
<!DOCTYPE svg PUBLIC "-//W3C//DTD SVG 20010904//EN"
 "http://www.w3.org/TR/2001/REC-SVG-20010904/DTD/svg10.dtd">
<svg version="1.0" xmlns="http://www.w3.org/2000/svg"
 width="500.000000pt" height="500.000000pt" viewBox="0 0 500.000000 500.000000"
 preserveAspectRatio="xMidYMid meet">
<metadata>
Created by potrace 1.14, written by Peter Selinger 2001-2017
</metadata>
<g transform="translate(0.000000,500.000000) scale(0.100000,-0.100000)"
fill="#000000" stroke="none">
<path d="M2827 4804 c-4 -3 -103 -15 -147 -18 -25 -1 -54 -5 -65 -9 -11 -3
-42 -8 -70 -12 -27 -3 -63 -10 -80 -15 -16 -5 -47 -12 -67 -15 -21 -3 -38 -10
-38 -16 0 -6 -4 -7 -10 -4 -5 3 -20 0 -32 -7 -13 -7 -26 -11 -30 -10 -5 1 -8
-3 -8 -10 0 -6 -3 -9 -6 -6 -3 4 -31 -5 -62 -19 -89 -39 -166 -74 -182 -84 -8
-4 -33 -17 -55 -27 -22 -11 -106 -61 -187 -113 -81 -52 -173 -110 -205 -129
-60 -36 -193 -162 -193 -182 0 -6 -2 -9 -5 -6 -9 8 -300 -284 -335 -337 -19
-27 -37 -51 -42 -53 -4 -2 -8 -10 -8 -18 0 -9 -4 -13 -9 -9 -5 3 -12 -3 -16
-14 -3 -10 -16 -30 -28 -43 -63 -71 -84 -98 -79 -103 3 -3 0 -5 -5 -5 -13 0
-97 -120 -86 -120 5 0 3 -4 -3 -8 -12 -8 -64 -111 -64 -128 0 -6 -7 -17 -15
-24 -8 -7 -15 -20 -15 -30 0 -10 -6 -23 -14 -30 -8 -6 -12 -18 -9 -26 3 -8 -1
-14 -8 -14 -7 0 -10 -3 -6 -6 3 -3 -5 -26 -19 -50 -13 -24 -24 -45 -23 -46 1
-2 -8 -24 -20 -50 -11 -26 -21 -54 -21 -62 0 -9 -4 -16 -10 -16 -5 0 -10 -8
-10 -19 0 -10 -7 -38 -16 -62 -9 -24 -17 -48 -18 -54 -10 -40 -28 -103 -33
-115 -4 -8 -7 -19 -8 -25 0 -5 -4 -16 -8 -22 -5 -7 -6 -13 -3 -13 3 0 -2 -16
-10 -35 -8 -19 -12 -35 -10 -35 3 0 -1 -15 -8 -32 -8 -18 -17 -55 -20 -82 -4
-27 -10 -54 -13 -59 -3 -4 -7 -61 -9 -125 -2 -64 -4 -119 -4 -122 -1 -3 -1
-54 0 -115 1 -114 7 -180 19 -205 4 -8 9 -35 10 -60 1 -25 4 -53 7 -62 11 -36
16 -65 20 -108 2 -25 5 -52 7 -60 2 -8 7 -37 12 -65 4 -27 13 -63 20 -80 7
-16 27 -73 45 -125 18 -52 37 -101 43 -107 5 -7 6 -13 3 -13 -4 0 0 -10 8 -22
9 -12 16 -30 16 -40 0 -10 5 -18 10 -18 6 0 10 -8 10 -18 0 -43 118 -198 247
-325 40 -39 86 -79 103 -90 16 -10 30 -23 30 -28 0 -5 5 -9 11 -9 6 0 30 -15
52 -33 65 -51 239 -159 267 -165 10 -2 47 -16 105 -40 57 -23 163 -60 195 -67
8 -2 15 -4 15 -5 0 -1 77 -4 170 -6 94 -2 194 -5 223 -7 28 -1 52 0 52 3 0 3
17 5 37 4 21 -1 51 3 68 7 16 5 53 11 80 15 61 7 73 9 106 18 14 4 39 9 55 10
43 4 80 16 135 42 27 13 56 24 64 24 8 0 15 5 15 10 0 6 7 10 15 10 8 0 15 5
15 11 0 5 4 8 9 4 6 -3 14 3 20 12 6 10 11 15 11 10 0 -4 15 0 33 10 17 10 37
18 43 18 6 0 18 5 25 12 8 6 21 13 29 15 8 2 19 9 25 16 5 7 21 14 34 17 13 2
31 11 41 20 9 8 22 15 28 15 7 0 21 9 32 20 11 11 20 18 20 15 0 -3 27 13 60
35 33 22 60 37 60 33 0 -4 6 0 13 9 6 8 54 43 105 78 50 34 92 66 92 71 0 5 6
9 13 9 6 0 65 52 130 115 65 63 120 115 122 115 11 0 145 140 145 151 0 7 3 9
6 6 4 -4 27 24 51 61 24 37 48 68 54 70 5 2 9 10 9 18 0 8 7 17 15 20 8 4 15
12 15 20 0 8 5 14 11 14 5 0 8 4 5 9 -3 5 1 11 9 15 8 3 15 11 15 18 0 7 10
24 23 38 13 14 23 27 23 30 0 3 14 26 32 52 18 26 32 49 32 53 0 4 7 13 15 22
8 8 13 19 10 24 -4 5 -1 9 5 9 6 0 9 4 6 9 -4 5 -2 11 3 13 5 1 45 75 90 163
45 88 86 165 91 172 6 7 10 18 10 26 0 8 7 28 16 45 8 17 17 43 20 56 2 14 13
53 24 88 11 35 20 72 20 84 0 11 4 24 8 30 8 9 27 79 38 139 3 16 8 32 12 35
8 6 11 17 14 59 1 17 6 31 11 31 5 0 7 9 4 20 -3 11 -2 20 1 20 4 0 7 26 8 58
1 68 6 123 13 137 5 10 6 17 16 150 9 128 9 146 0 220 -5 39 -8 74 -6 79 1 4
-3 22 -8 40 -6 17 -13 51 -16 76 -9 63 -13 91 -19 120 -3 14 -7 36 -9 50 -6
39 -29 114 -39 125 -4 5 -8 19 -8 31 0 12 -4 24 -10 26 -5 2 -11 12 -13 23 -2
11 -13 41 -25 68 -12 26 -21 50 -21 52 0 3 -12 26 -26 50 -14 25 -25 52 -25
60 0 8 -3 15 -8 15 -4 0 -13 14 -20 30 -8 17 -45 62 -83 100 -38 39 -69 72
-69 74 0 18 -214 233 -240 241 -11 4 -20 11 -20 16 0 5 -6 9 -13 9 -8 0 -22 9
-32 20 -10 11 -24 20 -31 20 -7 0 -14 4 -16 8 -11 28 -207 133 -268 144 -8 2
-17 5 -20 8 -7 7 -67 30 -110 41 -19 6 -51 15 -70 21 -27 8 -434 19 -443 12z
m303 -307 c14 -3 37 -8 52 -11 15 -4 40 -11 55 -17 16 -6 28 -10 28 -9 0 2 40
-11 55 -19 8 -4 36 -14 63 -22 26 -7 47 -16 47 -20 0 -4 11 -10 25 -13 14 -4
51 -31 82 -61 32 -30 61 -55 66 -55 4 0 5 -4 2 -10 -3 -5 -1 -10 6 -10 12 0
89 -80 89 -93 0 -4 16 -33 35 -63 19 -30 35 -59 35 -64 0 -6 5 -10 10 -10 6 0
10 -8 10 -18 0 -10 5 -23 11 -29 6 -6 12 -17 13 -24 2 -8 5 -21 8 -29 10 -25
55 -190 78 -281 6 -25 13 -77 15 -115 2 -38 4 -69 5 -69 6 0 13 -325 8 -387
-1 -10 -5 -18 -9 -18 -4 0 -3 -15 1 -34 4 -19 4 -39 0 -46 -4 -6 -8 -39 -9
-73 -3 -101 -13 -162 -56 -317 -3 -8 -10 -37 -16 -65 -6 -27 -15 -54 -20 -59
-5 -6 -9 -24 -9 -41 0 -38 -18 -59 -37 -44 -7 7 -13 8 -13 4 0 -4 -6 -3 -13 3
-17 14 -86 10 -96 -7 -5 -7 -11 -11 -14 -9 -4 1 -15 -5 -27 -14 -11 -10 -20
-15 -20 -12 0 3 -7 -1 -15 -10 -8 -8 -15 -20 -15 -26 0 -6 -4 -8 -10 -5 -5 3
-10 2 -10 -4 0 -6 -15 -18 -32 -27 -38 -20 -210 -189 -201 -198 4 -3 2 -6 -4
-6 -6 0 -21 -10 -34 -23 -13 -13 -49 -41 -79 -62 -30 -22 -61 -46 -69 -53 -61
-58 -169 -119 -146 -82 4 6 9 23 12 38 9 42 9 323 0 329 -4 2 -5 9 -1 14 3 6
1 22 -4 37 -5 15 -20 60 -32 101 -18 59 -32 85 -69 123 -25 26 -51 48 -58 48
-7 0 -13 4 -13 9 0 5 -8 11 -17 14 -10 4 -40 20 -68 36 -62 37 -123 41 -167
10 -16 -12 -27 -23 -24 -26 4 -5 0 -11 -29 -46 -6 -7 -17 -28 -25 -47 -7 -19
-28 -68 -47 -108 -18 -40 -33 -77 -33 -82 0 -6 -4 -10 -10 -10 -5 0 -10 -9
-10 -20 0 -11 -5 -20 -11 -20 -5 0 -8 -4 -5 -8 2 -4 1 -14 -4 -22 -8 -13 6
-48 25 -62 18 -14 62 -8 83 9 20 17 95 137 136 216 17 33 23 37 53 35 24 -1
46 -13 73 -41 22 -21 39 -41 38 -45 -1 -4 2 -14 5 -22 29 -68 47 -332 26 -373
-6 -9 -12 -36 -14 -60 -4 -39 -11 -82 -15 -82 -1 0 -3 -9 -5 -20 -8 -46 -17
-79 -26 -97 -5 -10 -7 -18 -4 -18 3 0 0 -10 -6 -22 -19 -36 -40 -140 -38 -188
3 -59 16 -87 49 -103 39 -20 80 -2 144 63 29 30 77 78 105 105 28 28 62 65 74
82 12 18 28 33 35 33 6 0 12 3 12 8 0 9 56 72 64 72 3 0 14 8 25 18 42 39 80
68 114 87 20 11 37 23 37 27 0 5 6 8 13 8 20 0 107 78 177 158 25 29 51 52 57
52 7 0 13 4 13 10 0 12 59 44 61 33 6 -37 4 -53 -8 -57 -8 -3 -11 -10 -8 -16
3 -5 0 -22 -8 -37 -8 -16 -19 -39 -25 -53 -16 -41 -84 -173 -102 -200 -10 -14
-39 -61 -66 -105 -26 -44 -52 -81 -56 -83 -4 -2 -8 -9 -8 -16 0 -7 -9 -21 -20
-31 -11 -10 -17 -22 -14 -26 3 -5 -1 -9 -8 -9 -7 -1 -31 -26 -53 -56 -21 -31
-50 -66 -64 -80 -13 -13 -20 -24 -15 -24 5 0 -2 -7 -14 -16 -12 -8 -22 -22
-22 -30 0 -8 -4 -14 -8 -14 -4 0 -30 -31 -57 -70 -28 -38 -56 -70 -62 -70 -7
0 -13 -4 -13 -10 0 -5 -7 -10 -16 -10 -8 0 -12 -4 -9 -10 3 -5 -1 -10 -9 -10
-9 0 -16 -4 -16 -10 0 -5 -5 -10 -11 -10 -7 0 -25 -13 -41 -30 -15 -16 -31
-30 -34 -30 -5 0 -120 -95 -134 -111 -15 -16 -80 -60 -80 -54 0 4 -15 -4 -34
-19 -19 -14 -39 -26 -44 -26 -4 0 -53 -22 -108 -49 -87 -42 -170 -72 -269 -97
-16 -4 -34 -8 -40 -10 -5 -1 -21 -4 -35 -7 -14 -3 -44 -10 -68 -15 -24 -6
-116 -9 -205 -7 -161 4 -177 6 -208 19 -9 4 -20 6 -25 5 -5 -1 -25 5 -44 14
-19 8 -38 13 -42 11 -5 -3 -8 -1 -8 3 0 5 -10 9 -22 10 -20 2 -105 40 -118 53
-3 3 -25 20 -49 39 -64 49 -190 172 -204 197 -7 12 -23 44 -37 71 -14 26 -28
50 -32 51 -5 2 -8 10 -8 19 0 8 -6 20 -13 28 -8 7 -22 39 -31 72 -10 32 -20
65 -23 73 -3 8 -8 24 -10 35 -2 11 -8 24 -13 29 -6 6 -10 21 -10 35 0 15 -7
35 -15 45 -8 10 -12 23 -9 28 3 5 1 14 -4 21 -17 21 -28 97 -33 227 -1 30 -5
59 -8 65 -6 12 -4 102 4 114 3 5 1 13 -5 16 -6 4 -9 14 -6 23 3 10 7 41 10 70
3 29 8 63 11 75 4 19 15 99 17 135 1 6 4 12 7 12 3 0 7 21 9 48 2 44 8 84 12
90 2 1 3 5 4 10 4 17 20 87 20 92 1 3 5 11 10 18 4 7 6 16 3 19 -3 3 -2 15 3
27 4 13 11 40 14 60 19 116 50 221 99 326 14 31 29 68 32 83 4 15 11 27 16 27
5 0 9 9 9 19 0 11 4 22 9 26 5 3 12 19 16 35 4 17 11 30 16 30 5 0 9 9 9 19 0
11 7 26 15 35 8 8 15 19 15 25 0 6 11 31 25 56 14 25 36 65 50 90 13 25 21 45
17 45 -4 0 -2 4 4 8 6 4 31 45 56 92 49 95 85 152 117 190 11 14 24 30 28 35
5 6 30 37 58 70 27 33 54 66 60 73 23 31 224 231 279 277 32 28 68 59 81 70
60 54 101 79 243 150 85 43 160 78 166 79 6 1 21 8 34 14 12 7 22 10 22 8 0
-3 19 2 43 10 23 8 60 18 82 21 22 3 42 8 45 12 3 3 21 8 39 9 19 2 51 10 70
17 36 12 286 14 341 2z"/>
<path d="M2180 3144 c-19 -8 -49 -26 -66 -39 -18 -14 -38 -25 -45 -25 -7 0
-10 -3 -7 -6 3 -3 -17 -26 -46 -52 -28 -26 -57 -56 -65 -66 -8 -11 -23 -28
-33 -38 -10 -10 -15 -18 -10 -18 4 0 0 -6 -9 -13 -9 -7 -16 -14 -16 -17 0 -17
-16 -50 -24 -50 -6 0 -7 -4 -4 -10 3 -5 1 -10 -4 -10 -6 0 -11 -5 -11 -11 0
-6 -18 -38 -40 -71 -22 -33 -40 -64 -40 -68 0 -4 -7 -13 -15 -20 -9 -7 -13
-15 -11 -18 3 -2 -5 -19 -18 -36 -13 -17 -27 -41 -31 -53 -3 -13 -11 -23 -16
-23 -5 0 -9 -4 -9 -9 0 -5 -20 -43 -44 -84 -25 -41 -42 -78 -39 -81 4 -3 1 -6
-5 -6 -7 0 -12 -7 -12 -16 0 -9 -7 -32 -16 -52 -9 -21 -20 -46 -24 -57 -5 -11
-21 -47 -35 -80 -15 -33 -34 -78 -43 -100 -8 -22 -22 -50 -30 -62 -8 -13 -12
-23 -8 -23 3 0 -5 -25 -19 -55 -13 -31 -24 -58 -25 -60 0 -3 -1 -7 -1 -10 -1
-3 -3 -9 -4 -15 -1 -5 -4 -11 -5 -12 -1 -2 -4 -16 -5 -33 -5 -48 -16 -109 -23
-120 -3 -5 -7 -25 -9 -45 -2 -19 -8 -59 -14 -88 -16 -82 -21 -133 -18 -187 1
-16 0 -34 -1 -40 -2 -5 0 -23 4 -40 38 -147 101 -206 227 -210 38 -1 69 2 69
6 0 8 77 25 93 21 4 -1 7 2 7 6 0 5 6 9 13 10 22 2 41 8 82 27 22 10 43 18 47
17 3 -1 12 5 18 13 7 8 19 15 28 15 8 0 23 7 33 16 9 8 23 17 31 18 20 4 52
19 58 26 3 3 34 21 69 39 35 18 73 42 84 52 12 10 26 19 33 19 7 0 14 4 16 8
2 4 24 23 51 42 26 18 47 37 47 42 0 4 7 8 15 8 8 0 15 5 15 10 0 6 7 10 15
10 8 0 15 4 15 9 0 5 9 13 20 16 11 4 18 10 15 14 -2 5 7 13 20 19 14 7 25 16
25 21 0 5 6 16 13 23 7 7 28 40 46 73 19 33 43 76 54 95 35 60 29 180 -9 180
-7 0 -14 5 -16 11 -5 15 -91 13 -116 -2 -19 -12 -33 -37 -36 -65 -1 -6 -9 -22
-19 -37 -9 -14 -17 -28 -17 -30 0 -3 -8 -22 -17 -43 -9 -22 -18 -46 -19 -54
-2 -8 -10 -20 -18 -26 -9 -6 -13 -14 -9 -17 3 -4 -1 -7 -10 -7 -10 0 -17 -4
-17 -8 0 -5 -39 -36 -86 -68 -47 -32 -100 -69 -118 -81 -17 -12 -37 -22 -43
-22 -7 -1 -13 -6 -13 -13 0 -6 -3 -9 -6 -5 -3 3 -38 -13 -78 -36 -39 -23 -103
-58 -141 -77 -39 -19 -73 -38 -76 -43 -3 -5 -10 -9 -15 -9 -11 -1 -29 -6 -65
-20 -14 -5 -40 -10 -57 -10 -19 -1 -29 -5 -25 -11 3 -6 -5 -2 -20 9 -14 10
-28 28 -30 39 -10 40 -7 156 4 177 7 12 13 40 14 62 2 23 4 41 5 41 3 0 10 50
16 120 3 39 12 87 20 108 7 20 11 37 8 37 -4 0 -2 6 3 13 6 6 16 29 22 50 7
20 17 37 23 37 6 0 8 3 5 6 -3 4 -1 16 5 28 7 11 13 23 13 26 1 3 12 25 25 50
13 25 25 52 26 60 2 8 8 16 14 18 5 2 8 8 5 12 -3 5 4 29 16 54 11 24 22 51
23 58 7 34 36 97 66 143 10 17 34 59 52 95 18 36 36 67 40 70 3 3 10 18 13 33
4 15 10 26 12 23 3 -3 19 21 35 52 17 31 36 60 42 64 6 4 8 8 4 8 -4 0 4 17
17 38 14 20 31 46 38 56 23 37 216 226 230 226 22 0 39 52 31 94 -3 20 -9 35
-12 32 -3 -3 -11 -1 -18 4 -20 18 -48 19 -84 4z"/>
</g>
</svg>
